<svg width="75" height="71" viewBox="0 0 75 71" fill="none" xmlns="http://www.w3.org/2000/svg">
<path d="M74.8554 38.9164C74.182 32.2367 71.156 25.9393 66.3345 21.1843C62.2142 17.1209 57.1709 14.5097 51.8643 13.3487V9.67811C54.0317 9.14634 55.6428 7.21153 55.6428 4.9118C55.6428 2.20337 53.4086 0 50.6622 0H40.1152C37.3689 0 35.1347 2.20337 35.1347 4.9118C35.1347 7.21138 36.7457 9.1462 38.913 9.67811V13.3589C33.6226 14.5249 28.5961 17.1325 24.4874 21.1844C23.5883 22.0712 22.7592 23.0014 22.0002 23.9681C21.9635 23.9654 21.9267 23.9626 21.8892 23.9626H11.4504C10.6415 23.9626 9.98555 24.6094 9.98555 25.4073C9.98555 26.2052 10.6415 26.8519 11.4504 26.8519H20.007C18.933 28.6252 18.0669 30.4875 17.4077 32.4046H1.46487C0.655967 32.4046 0 33.0513 0 33.8492C0 34.6471 0.655967 35.2938 1.46487 35.2938H16.5799C16.1578 37.1215 15.9155 38.9815 15.8529 40.8466H9.37514C8.56624 40.8466 7.91028 41.4934 7.91028 42.2913C7.91028 43.0892 8.56624 43.7359 9.37514 43.7359H15.8997C16.0233 45.6059 16.3281 47.466 16.8143 49.2887H7.32433C6.51543 49.2887 5.85946 49.9355 5.85946 50.7334C5.85946 51.5312 6.51543 52.178 7.32433 52.178H17.7492C19.1862 55.927 21.432 59.4408 24.4874 62.4541C29.3136 67.2136 35.7057 70.1985 42.4859 70.8591C43.4536 70.9533 44.4221 71 45.3892 71C51.1054 71 56.7489 69.3686 61.5375 66.2932C62.2155 65.8578 62.4072 64.9628 61.9657 64.2942C61.5242 63.6257 60.6167 63.4366 59.9388 63.872C49.4567 70.6036 35.4184 69.1481 26.559 60.411C16.1641 50.1595 16.1641 33.4792 26.559 23.2276C36.9539 12.9762 53.8677 12.9762 64.2628 23.2276C73.1104 31.9533 74.5943 45.7859 67.7911 56.1183C67.3504 56.7874 67.5434 57.6822 68.2217 58.1167C68.9006 58.5512 69.8076 58.3609 70.2481 57.6918C73.883 52.1711 75.5193 45.5033 74.8554 38.9164ZM38.0644 4.91194C38.0644 3.79667 38.9843 2.88944 40.1152 2.88944H50.6622C51.7931 2.88944 52.7131 3.79667 52.7131 4.91194C52.7131 6.02721 51.7931 6.93444 50.6622 6.93444H50.3994H40.3779H40.1152C38.9843 6.93444 38.0644 6.02706 38.0644 4.91194ZM41.8427 12.8623V9.82374H48.9346V12.8571C46.5797 12.5808 44.1972 12.5826 41.8427 12.8623Z" fill="#2A8BFB"/>
<path d="M65.2991 59.9873C64.9124 59.9873 64.5359 60.1419 64.2636 60.4105C63.9896 60.6792 63.8342 61.0518 63.8342 61.4317C63.8342 61.8115 63.9896 62.1842 64.2636 62.4528C64.5359 62.7229 64.9125 62.876 65.2991 62.876C65.6843 62.876 66.0608 62.7229 66.3347 62.4528C66.6072 62.1842 66.7639 61.8115 66.7639 61.4317C66.7639 61.0518 66.6073 60.6792 66.3347 60.4105C66.0608 60.1419 65.6842 59.9873 65.2991 59.9873Z" fill="#7CB9FC"/>
<path d="M45.411 19.4086C32.8808 19.4086 22.6866 29.4619 22.6866 41.8193C22.6866 54.1766 32.8808 64.2299 45.411 64.2299C57.9411 64.2299 68.1353 54.1766 68.1353 41.8193C68.1353 29.4619 57.9411 19.4086 45.411 19.4086ZM45.411 61.3406C34.4961 61.3406 25.6164 52.5833 25.6164 41.8193C25.6164 31.0552 34.4961 22.2979 45.411 22.2979C56.3258 22.2979 65.2055 31.0552 65.2055 41.8193C65.2055 52.5833 56.3258 61.3406 45.411 61.3406Z" fill="#2A8BFB"/>
<path d="M54.6775 30.6378L47.422 37.793C46.8153 37.4971 46.1328 37.33 45.4113 37.33C44.6897 37.33 44.0074 37.4971 43.4007 37.793L40.1535 34.5906C39.5813 34.0265 38.6541 34.0265 38.0817 34.5906C37.5097 35.1548 37.5097 36.0695 38.0817 36.6337L41.3289 39.836C41.0287 40.4344 40.8594 41.1074 40.8594 41.8189C40.8594 44.2942 42.9013 46.308 45.4113 46.308C47.9214 46.308 49.9633 44.2942 49.9633 41.8189C49.9633 41.1074 49.7938 40.4344 49.4938 39.836L56.5362 32.8907L56.7491 32.6808C57.3211 32.1167 57.3211 31.2019 56.7491 30.6378C56.1771 30.0737 55.2498 30.0737 54.6775 30.6378ZM45.4113 43.4189C44.5169 43.4189 43.7891 42.7012 43.7891 41.8191C43.7891 40.937 44.5169 40.2193 45.4113 40.2193C46.3058 40.2193 47.0335 40.937 47.0335 41.8191C47.0335 42.7012 46.3058 43.4189 45.4113 43.4189Z" fill="#7CB9FC"/>
<path d="M61.0743 40.3921H59.7172C58.9083 40.3921 58.2523 41.0387 58.2523 41.8364C58.2523 42.6341 58.9083 43.2808 59.7172 43.2808H61.0743C61.8832 43.2808 62.5392 42.6341 62.5392 41.8364C62.5392 41.0387 61.8832 40.3921 61.0743 40.3921Z" fill="#7CB9FC"/>
<path d="M31.1057 40.3566H29.7487C28.9398 40.3566 28.2838 41.0033 28.2838 41.801C28.2838 42.5987 28.9398 43.2453 29.7487 43.2453H31.1057C31.9146 43.2453 32.5705 42.5987 32.5705 41.801C32.5705 41.0033 31.9146 40.3566 31.1057 40.3566Z" fill="#7CB9FC"/>
<path d="M45.4288 29.1552C46.2377 29.1552 46.8937 28.5086 46.8937 27.7109V26.3728C46.8937 25.5751 46.2377 24.9285 45.4288 24.9285C44.6199 24.9285 43.964 25.5751 43.964 26.3728V27.7109C43.964 28.5086 44.6199 29.1552 45.4288 29.1552Z" fill="#7CB9FC"/>
<path d="M45.3929 54.4821C44.5841 54.4821 43.9281 55.1287 43.9281 55.9264V57.2645C43.9281 58.0622 44.5841 58.7088 45.3929 58.7088C46.2018 58.7088 46.8578 58.0622 46.8578 57.2645V55.9264C46.8578 55.1287 46.2018 54.4821 45.3929 54.4821Z" fill="#7CB9FC"/>
<path d="M1.46484 49.2881C1.07959 49.2881 0.70166 49.4426 0.429199 49.7113C0.156738 49.9799 0 50.3526 0 50.7324C0 51.1137 0.156592 51.4849 0.429199 51.7536C0.701806 52.0222 1.07959 52.1768 1.46484 52.1768C1.8501 52.1768 2.22803 52.0222 2.50034 51.7536C2.7728 51.4849 2.92969 51.1123 2.92969 50.7324C2.92969 50.3526 2.77295 49.9799 2.50034 49.7113C2.22803 49.4426 1.8501 49.2881 1.46484 49.2881Z" fill="#7CB9FC"/>
</svg>
