<svg width="75" height="58" viewBox="0 0 75 58" fill="none" xmlns="http://www.w3.org/2000/svg">
<path d="M71.7041 29.7793H70.6055V20.0107C70.6055 17.0212 68.6631 14.4725 65.9603 13.5283L64.3592 7.62517C63.9136 5.98245 62.2399 4.94842 60.5509 5.27071L58.518 5.65842L57.6376 2.41262C57.3998 1.53576 56.7964 0.791313 55.9822 0.370465C55.1681 -0.0503828 54.2051 -0.116086 53.3402 0.190867L17.006 13.0801C16.955 13.0982 16.9071 13.1207 16.8608 13.145C13.1867 13.3266 10.2539 16.3365 10.2539 20.0107V28.9719C4.298 30.9672 0 36.544 0 43.0938C0 51.313 6.76846 58 15.0879 58H31.2012C31.8079 58 32.2998 57.514 32.2998 56.9146C32.2998 56.3152 31.8079 55.8292 31.2012 55.8292H22.9213C23.9401 55.2153 24.8795 54.4853 25.7213 53.6584H62.915C64.7325 53.6584 66.2109 52.1977 66.2109 50.4022V41.3571H68.4082V51.1258C68.4082 53.7192 66.2725 55.8292 63.6475 55.8292H36.3281C35.7214 55.8292 35.2295 56.3152 35.2295 56.9146C35.2295 57.514 35.7214 58 36.3281 58H63.6475C67.484 58 70.6055 54.9161 70.6055 51.1258V41.3571H71.7041C73.5215 41.3571 75 39.8965 75 38.1009V33.0357C75 31.24 73.5215 29.7793 71.7041 29.7793ZM60.9674 7.4023C61.5308 7.29477 62.0883 7.63964 62.2368 8.18712L63.5792 13.1364H30.9021L60.9674 7.4023ZM54.0828 2.23403C54.3754 2.13013 54.688 2.15154 54.9634 2.29395C55.2388 2.43635 55.4348 2.67804 55.5152 2.97471L56.355 6.07116L28.0475 11.47L54.0828 2.23403ZM15.0879 55.829C7.98003 55.829 2.19727 50.1159 2.19727 43.0936C2.19727 36.0713 7.98003 30.3582 15.0879 30.3582C22.1958 30.3582 27.9785 36.0713 27.9785 43.0936C27.9785 50.1159 22.1958 55.829 15.0879 55.829ZM64.0137 50.402C64.0137 51.0006 63.5209 51.4874 62.915 51.4874H27.5496C29.2058 49.095 30.1758 46.2044 30.1758 43.0936C30.1758 35.4618 24.34 29.1522 16.8457 28.2891V25.1482H19.7754C20.3821 25.1482 20.874 24.6623 20.874 24.0628C20.874 23.4634 20.3821 22.9774 19.7754 22.9774H16.8457V20.7343C16.8457 20.1357 17.3385 19.6489 17.9443 19.6489H24.5361H62.915C63.5209 19.6489 64.0137 20.1357 64.0137 20.7343V25.7995C64.0137 26.3989 64.5056 26.8849 65.1123 26.8849C65.719 26.8849 66.2109 26.3989 66.2109 25.7995V20.7343C66.2109 18.9387 64.7325 17.478 62.915 17.478H24.5361H17.9443C16.1269 17.478 14.6484 18.9387 14.6484 20.7343V28.1942C13.9014 28.2155 13.1676 28.2904 12.4512 28.4156V20.0107C12.4512 17.4173 14.5869 15.3072 17.2119 15.3072H63.6475C66.2725 15.3072 68.4082 17.4173 68.4082 20.0107V29.7793H60.2783C58.057 29.7793 56.25 31.5646 56.25 33.7591V37.3772C56.25 39.5717 58.057 41.357 60.2783 41.357H64.0137V50.402ZM72.8027 38.1008C72.8027 38.6993 72.31 39.1862 71.7041 39.1862H60.2783C59.2686 39.1862 58.4473 38.3747 58.4473 37.3772V33.7591C58.4473 32.7616 59.2686 31.9501 60.2783 31.9501H71.7041C72.31 31.9501 72.8027 32.437 72.8027 33.0355V38.1008Z" fill="#2A8BFB"/>
<path d="M15.0879 32.529C9.1916 32.529 4.39453 37.2683 4.39453 43.0936C4.39453 48.9189 9.1916 53.6582 15.0879 53.6582C20.9842 53.6582 25.7812 48.9189 25.7812 43.0936C25.7812 37.2683 20.9842 32.529 15.0879 32.529ZM15.0879 51.4874C10.4032 51.4874 6.5918 47.7219 6.5918 43.0936C6.5918 38.4653 10.4032 34.6998 15.0879 34.6998C19.7726 34.6998 23.584 38.4653 23.584 43.0936C23.584 47.7219 19.7726 51.4874 15.0879 51.4874Z" fill="#7CB9FC"/>
<path d="M62.3291 34.1209C61.5201 34.1209 60.8643 34.7688 60.8643 35.5681C60.8643 36.3674 61.5201 37.0153 62.3291 37.0153C63.1381 37.0153 63.7939 36.3674 63.7939 35.5681C63.7939 34.7688 63.1381 34.1209 62.3291 34.1209Z" fill="#7CB9FC"/>
<path d="M27.5391 22.9774H24.1699C23.5632 22.9774 23.0713 23.4634 23.0713 24.0628C23.0713 24.6623 23.5632 25.1482 24.1699 25.1482H27.5391C28.1458 25.1482 28.6377 24.6623 28.6377 24.0628C28.6377 23.4634 28.1458 22.9774 27.5391 22.9774Z" fill="#7CB9FC"/>
<path d="M31.9336 25.1482H35.5957C36.2024 25.1482 36.6943 24.6623 36.6943 24.0628C36.6943 23.4634 36.2024 22.9774 35.5957 22.9774H31.9336C31.3269 22.9774 30.835 23.4634 30.835 24.0628C30.835 24.6623 31.3269 25.1482 31.9336 25.1482Z" fill="#7CB9FC"/>
<path d="M39.9902 25.1482H43.6523C44.2591 25.1482 44.751 24.6623 44.751 24.0628C44.751 23.4634 44.2591 22.9774 43.6523 22.9774H39.9902C39.3835 22.9774 38.8916 23.4634 38.8916 24.0628C38.8916 24.6623 39.3835 25.1482 39.9902 25.1482Z" fill="#7CB9FC"/>
<path d="M48.0469 25.1482H51.709C52.3157 25.1482 52.8076 24.6623 52.8076 24.0628C52.8076 23.4634 52.3157 22.9774 51.709 22.9774H48.0469C47.4401 22.9774 46.9482 23.4634 46.9482 24.0628C46.9482 24.6623 47.4401 25.1482 48.0469 25.1482Z" fill="#7CB9FC"/>
<path d="M56.1035 25.1482H59.7656C60.3724 25.1482 60.8643 24.6623 60.8643 24.0628C60.8643 23.4634 60.3724 22.9774 59.7656 22.9774H56.1035C55.4968 22.9774 55.0049 23.4634 55.0049 24.0628C55.0049 24.6623 55.4968 25.1482 56.1035 25.1482Z" fill="#7CB9FC"/>
<path d="M35.7422 46.4222H32.0801C31.4733 46.4222 30.9814 46.9082 30.9814 47.5076C30.9814 48.107 31.4733 48.593 32.0801 48.593H35.7422C36.3489 48.593 36.8408 48.107 36.8408 47.5076C36.8408 46.9082 36.3489 46.4222 35.7422 46.4222Z" fill="#7CB9FC"/>
<path d="M43.7988 46.4222H40.1367C39.53 46.4222 39.0381 46.9082 39.0381 47.5076C39.0381 48.107 39.53 48.593 40.1367 48.593H43.7988C44.4056 48.593 44.8975 48.107 44.8975 47.5076C44.8975 46.9082 44.4056 46.4222 43.7988 46.4222Z" fill="#7CB9FC"/>
<path d="M51.8555 46.4222H48.1934C47.5866 46.4222 47.0947 46.9082 47.0947 47.5076C47.0947 48.107 47.5866 48.593 48.1934 48.593H51.8555C52.4622 48.593 52.9541 48.107 52.9541 47.5076C52.9541 46.9082 52.4622 46.4222 51.8555 46.4222Z" fill="#7CB9FC"/>
<path d="M56.25 46.4222C55.6433 46.4222 55.1514 46.9082 55.1514 47.5076C55.1514 48.107 55.6433 48.593 56.25 48.593H59.9121C60.5188 48.593 61.0107 48.107 61.0107 47.5076C61.0107 46.9082 60.5188 46.4222 59.9121 46.4222H56.25Z" fill="#7CB9FC"/>
</svg>
