<svg width="75" height="73" viewBox="0 0 75 73" fill="none" xmlns="http://www.w3.org/2000/svg">
<path d="M69.9987 0H5.00127C2.2437 0 0 2.25932 0 5.03575V46.5689C0 47.2636 0.56001 47.8274 1.24995 47.8274H73.7499C74.4398 47.8274 74.9999 47.2636 74.9999 46.5689V5.03575C75 2.25932 72.7563 0 69.9987 0ZM72.5 45.3103H2.50005V5.03575C2.50005 3.64621 3.62256 2.51729 5.00127 2.51729H69.9987C71.3774 2.51729 72.5 3.64621 72.5 5.03575V45.3103Z" fill="#2A8BFB"/>
<path d="M73.7501 45.3103H1.24995C0.56001 45.3103 0 45.8742 0 46.5689V52.8607C0 55.6373 2.2437 57.8964 5.00127 57.8964H69.9987C72.7563 57.8964 75 55.6373 75 52.8607V46.5689C75 45.8742 74.44 45.3103 73.7501 45.3103ZM72.5 52.8608C72.5 54.2504 71.3774 55.3793 69.9987 55.3793H5.00127C3.62256 55.3793 2.50005 54.2504 2.50005 52.8608V47.8276H72.5001V52.8608H72.5Z" fill="#2A8BFB"/>
<path d="M41.2501 50.3448H33.7501C33.0601 50.3448 32.5001 50.9087 32.5001 51.6034C32.5001 52.2981 33.0601 52.862 33.7501 52.862H41.2501C41.94 52.862 42.5 52.2981 42.5 51.6034C42.5 50.9087 41.94 50.3448 41.2501 50.3448Z" fill="#2A8BFB"/>
<path d="M68.75 5.03458H6.25007C5.56013 5.03458 5.00012 5.59845 5.00012 6.29315V46.569C5.00012 47.2637 5.56013 47.8276 6.25007 47.8276H68.7501C69.4401 47.8276 70.0001 47.2637 70.0001 46.569V6.29315C70.0001 5.59845 69.4401 5.03458 68.75 5.03458ZM67.5 45.3103H7.50002V7.55172H67.5V45.3103Z" fill="#2A8BFB"/>
<path d="M53.75 65.4483H21.2501C19.1826 65.4483 17.5001 67.1425 17.5001 69.2242C17.5001 71.3059 19.1826 73.0001 21.2501 73.0001H53.7502C55.8177 73.0001 57.5002 71.3059 57.5002 69.2242C57.5002 67.1425 55.8175 65.4483 53.75 65.4483ZM53.75 70.4828H21.2501C20.5602 70.4828 20.0002 69.9177 20.0002 69.2242C20.0002 68.5307 20.5602 67.9656 21.2501 67.9656H53.7502C54.4401 67.9656 55.0001 68.5307 55.0001 69.2242C55.0001 69.9177 54.4401 70.4828 53.75 70.4828Z" fill="#2A8BFB"/>
<path d="M51.25 65.4483C47.1025 65.4483 45 62.4842 45 56.638C45 55.9433 44.44 55.3794 43.75 55.3794H31.2501C30.5601 55.3794 30.0001 55.9433 30.0001 56.638C30.0001 62.4842 27.8976 65.4483 23.7501 65.4483C23.0601 65.4483 22.5001 66.0121 22.5001 66.7068C22.5001 67.4015 23.0601 67.9654 23.7501 67.9654H51.25C51.94 67.9654 52.5 67.4015 52.5 66.7068C52.5 66.0121 51.94 65.4483 51.25 65.4483ZM29.8387 65.4483C31.3775 63.7316 32.2837 61.1752 32.4662 57.8966H42.5349C42.7161 61.1752 43.6224 63.7316 45.1624 65.4483H29.8387Z" fill="#2A8BFB"/>
<path d="M59.73 37.0839L56.7126 34.0457L58.3913 32.3554C58.7026 32.042 58.8275 31.5864 58.72 31.1572C58.6125 30.728 58.2888 30.3881 57.8675 30.2598L45.3675 26.484C44.9263 26.3505 44.4501 26.4726 44.125 26.7999C43.7988 27.1272 43.6789 27.6079 43.8113 28.0509L47.5613 40.6371C47.6875 41.0625 48.0262 41.3884 48.4525 41.4967C48.8774 41.6024 49.3312 41.479 49.6425 41.1657L51.41 39.3847L54.4274 42.4243C54.6612 42.6608 54.98 42.793 55.3112 42.793C55.6424 42.793 55.9611 42.6608 56.1949 42.4243L59.7299 38.8636C60.2187 38.3716 60.2187 37.5761 59.73 37.0839ZM55.3112 39.7548L52.5637 36.987C52.245 36.6661 51.8275 36.5062 51.41 36.5062C50.9912 36.5062 50.5737 36.6673 50.2563 36.9857L49.3538 37.8944L46.8725 29.5661L55.1437 32.0646L54.1762 33.0388C53.9099 33.3081 53.7637 33.6656 53.7637 34.0457C53.7637 34.4271 53.9112 34.787 54.1787 35.0538L57.0787 37.9738L55.3112 39.7548Z" fill="#7CB9FC"/>
<path d="M52.5 10.069H17.5001C16.8101 10.069 16.2501 10.6329 16.2501 11.3276V17.6207C16.2501 18.3154 16.8101 18.8793 17.5001 18.8793H52.5C53.19 18.8793 53.75 18.3154 53.75 17.6207V11.3276C53.75 10.6329 53.19 10.069 52.5 10.069ZM51.2501 16.3622H18.75V12.5863H51.2501V16.3622Z" fill="#7CB9FC"/>
<path d="M32.5001 23.9138H22.5001C21.8101 23.9138 21.2501 24.4777 21.2501 25.1724V30.2068C21.2501 30.9015 21.8101 31.4654 22.5001 31.4654H32.5001C33.1901 31.4654 33.7501 30.9015 33.7501 30.2068V25.1724C33.7501 24.4777 33.1901 23.9138 32.5001 23.9138ZM31.25 28.9483H23.75V26.431H31.25V28.9483Z" fill="#7CB9FC"/>
<path d="M52.5 10.069H17.5001C16.8101 10.069 16.2501 10.6329 16.2501 11.3276V35.2413C16.2501 35.936 16.8101 36.4999 17.5001 36.4999H47.2576C47.6539 36.4999 48.0251 36.3124 48.2602 35.9926C48.4965 35.673 48.569 35.2602 48.4552 34.8788L46.8727 29.5662L52.1414 31.1584C52.5202 31.273 52.9302 31.2 53.2464 30.962C53.5638 30.7255 53.7501 30.3504 53.7501 29.9526V11.3276C53.75 10.6329 53.19 10.069 52.5 10.069ZM51.2501 28.2611L45.3662 26.484C44.925 26.3505 44.4488 26.4726 44.1238 26.7999C43.7975 27.1284 43.6776 27.6079 43.81 28.0523L45.5775 33.9829H18.75V12.5863H51.2501V28.2611Z" fill="#7CB9FC"/>
</svg>
