<svg width="25" height="21" viewBox="0 0 25 21" fill="none" xmlns="http://www.w3.org/2000/svg">
<path d="M13.3865 0C6.97247 0 1.77306 4.701 1.77306 10.5C1.77306 12.0755 2.15752 13.5694 2.84508 14.9106L0.0980002 19.7782C-0.0547344 20.0486 -0.0270671 20.3822 0.167902 20.6252C0.318774 20.8131 0.547395 20.9184 0.784035 20.9184C0.85309 20.9184 0.922767 20.9094 0.991483 20.8908L7.00522 19.2734C8.83645 20.3645 11.0292 21 13.3865 21C19.8005 21 25 16.2991 25 10.5C25 4.701 19.8005 0 13.3865 0ZM13.367 15.8944C12.7331 15.8944 12.2177 15.3891 12.2177 14.768C12.2177 14.1469 12.7332 13.6416 13.367 13.6416C14.001 13.6416 14.5165 14.147 14.5165 14.768C14.5166 15.3891 14.001 15.8944 13.367 15.8944ZM14.5712 10.5361C14.4203 10.6373 14.3159 10.7118 14.2595 10.7586V11.9356C14.2595 12.4177 13.8591 12.8099 13.3672 12.8099C12.8751 12.8099 12.475 12.4177 12.475 11.9356V10.6675C12.475 9.82202 13.1047 9.40028 13.5645 9.09241C14.0608 8.76014 14.3886 8.54064 14.3886 7.85514C14.3886 7.3032 13.9305 6.85418 13.3672 6.85418C12.8039 6.85418 12.3458 7.3032 12.3458 7.85514C12.3458 8.33724 11.9455 8.72944 11.4535 8.72944C10.9616 8.72944 10.5612 8.33724 10.5612 7.85514C10.5612 6.33904 11.82 5.10558 13.3672 5.10558C14.9142 5.10558 16.1729 6.33904 16.1729 7.85514C16.173 9.46374 15.1703 10.1351 14.5712 10.5361Z" fill="#2A8BFB"/>
</svg>
