<svg width="16" height="17" viewBox="0 0 16 17" fill="none" xmlns="http://www.w3.org/2000/svg">
<path d="M15.5423 7.481C15.8347 7.97406 16 8.5 16 9.13584C16 10.5973 14.7594 11.9774 13.1393 11.9774H11.9233C12.0873 12.4027 12.2183 12.9114 12.2183 13.5226C12.2183 15.9396 10.962 17 9.04267 17C6.9891 17 7.10623 13.8479 6.65067 13.3941C5.89243 12.6389 4.99683 11.1879 4.35867 10.625H1.06667C0.477567 10.625 0 10.1493 0 9.5625V1.59375C0 1.00695 0.477567 0.53125 1.06667 0.53125H3.2C3.69643 0.53125 4.1136 0.869059 4.2326 1.32647C5.71623 1.29323 6.7346 0.000331879 10.1593 0.000331879C10.4 0.000331879 10.6667 0 10.9 0C13.4706 0 14.6329 1.30897 14.6647 3.16525C15.1086 3.77702 15.3413 4.59704 15.2427 5.38953C15.5711 6.0022 15.6981 6.72904 15.5423 7.481ZM13.484 5.69367C13.9027 4.99209 13.526 4.05311 13.0193 3.78217C13.276 2.16252 12.4324 1.59408 11.2487 1.59408H9.988C7.60003 1.59408 6.0537 2.84982 4.26667 2.84982V9.03125H4.63067C5.576 9.03125 6.89667 11.385 7.782 12.2672C8.72733 13.2089 8.41233 14.7784 9.04267 15.4062C10.6183 15.4062 10.6183 14.3112 10.6183 13.5226C10.6183 12.2221 9.673 11.6394 9.673 10.3836H13.1393C13.843 10.3836 14.397 9.75574 14.4 9.12787C14.403 8.50033 13.9727 7.87246 13.6577 7.87246C14.1073 7.38919 14.2034 6.37048 13.484 5.69367ZM2.93333 2.65625C2.93333 2.21614 2.57517 1.85938 2.13333 1.85938C1.6915 1.85938 1.33333 2.21614 1.33333 2.65625C1.33333 3.09636 1.6915 3.45312 2.13333 3.45312C2.57517 3.45312 2.93333 3.09636 2.93333 2.65625Z" fill="#E16B58"/>
</svg>
