<svg width="18" height="18" viewBox="0 0 18 18" fill="none" xmlns="http://www.w3.org/2000/svg">
<path d="M12.1265 5.77608C11.7921 5.45178 11.4077 5.17865 10.9858 4.96985C11.1895 5.27939 11.3688 5.6376 11.5179 6.03709C11.7319 5.96035 11.9353 5.87305 12.1265 5.77608Z" fill="#B1C5CA"/>
<path d="M6.75586 8.68897H8.68832V7.05154C8.11081 7.02646 7.55244 6.9451 7.03223 6.81219C6.87646 7.38113 6.7789 8.01822 6.75586 8.68897Z" fill="#B1C5CA"/>
<path d="M6.99479 11.0374C7.52652 10.898 8.09845 10.8119 8.68869 10.7858V9.3114H6.75635C6.77789 9.92359 6.86159 10.5075 6.99479 11.0374Z" fill="#B1C5CA"/>
<path d="M7.22461 6.22009C7.6835 6.33433 8.17683 6.40483 8.68852 6.42829V4.5181C8.5984 4.52434 8.50923 4.53322 8.42067 4.54474C7.94234 4.83478 7.52342 5.43341 7.22461 6.22009Z" fill="#B1C5CA"/>
<path d="M5.81543 12.1676C6.2166 12.5708 6.69361 12.8981 7.22282 13.127C6.96649 12.7613 6.74647 12.3196 6.57235 11.819C6.30066 11.9192 6.04703 12.0358 5.81543 12.1676Z" fill="#B1C5CA"/>
<path d="M7.21706 4.8757C6.73591 5.08457 6.29862 5.37521 5.92188 5.73006C6.13866 5.84628 6.37314 5.9484 6.62125 6.03756C6.78565 5.59668 6.9869 5.20577 7.21706 4.8757Z" fill="#B1C5CA"/>
<path d="M6.43138 6.62886C6.09309 6.50874 5.777 6.36509 5.48894 6.19937C4.93507 6.89221 4.58214 7.75136 4.51758 8.68894H6.13245C6.15531 7.94739 6.26025 7.25179 6.43138 6.62886Z" fill="#B1C5CA"/>
<path d="M6.13306 9.3114H4.51807C4.57909 10.1989 4.89775 11.0168 5.40134 11.6891C5.70105 11.509 6.03442 11.3525 6.39388 11.2227C6.24574 10.6385 6.15454 9.99457 6.13306 9.3114Z" fill="#B1C5CA"/>
<path d="M8.43216 13.4573C8.51694 13.4678 8.60238 13.4764 8.6886 13.4823V11.4091C8.15873 11.434 7.64704 11.5099 7.17285 11.6322C7.47622 12.4952 7.92047 13.1527 8.43216 13.4573Z" fill="#B1C5CA"/>
<path d="M11.7461 11.2202C12.0662 11.3361 12.3664 11.4729 12.6409 11.6305C13.1197 10.9694 13.4229 10.1737 13.4822 9.31158H12.0064C11.985 9.99362 11.8941 10.6368 11.7461 11.2202Z" fill="#B1C5CA"/>
<path d="M10.9805 13.033C11.4497 12.8016 11.8723 12.4907 12.232 12.118C12.0256 12.0071 11.8026 11.9076 11.5663 11.8208C11.4067 12.2784 11.2091 12.6869 10.9805 13.033Z" fill="#B1C5CA"/>
<path d="M8.99982 0C4.02938 0 0 4.02974 0 9C0 13.9703 4.02938 18.0004 8.99982 18.0004C13.9703 18.0004 18 13.9705 18 9C18 4.0295 13.9703 0 8.99982 0ZM9 14.428C6.00714 14.428 3.57217 11.9932 3.57217 9.00018C3.57217 6.00714 6.00714 3.57235 9 3.57235C11.9929 3.57235 14.4278 6.00714 14.4278 9.00018C14.4278 11.9932 11.9929 14.428 9 14.428Z" fill="#B1C5CA"/>
<path d="M9.76308 4.57219C9.61464 4.54669 9.46386 4.52863 9.31104 4.51801V6.43426C9.87109 6.41776 10.4122 6.34354 10.9137 6.21844C10.6244 5.4572 10.2225 4.87177 9.76308 4.57219Z" fill="#B1C5CA"/>
<path d="M11.707 6.62839C11.8784 7.25132 11.9833 7.94728 12.0061 8.68895H13.4817C13.419 7.77531 13.0822 6.93638 12.5526 6.2532C12.291 6.39589 12.0081 6.52165 11.707 6.62839Z" fill="#B1C5CA"/>
<path d="M9.31104 13.4823C9.46044 13.4721 9.60798 13.4544 9.75312 13.43C10.2452 13.1143 10.6716 12.4699 10.9659 11.6331C10.4491 11.4997 9.88855 11.4205 9.31104 11.4031V13.4823Z" fill="#B1C5CA"/>
<path d="M11.1061 6.81061C10.543 6.95473 9.93649 7.03939 9.31104 7.05679V8.68895H11.3831C11.3599 8.01777 11.2622 7.38002 11.1061 6.81061Z" fill="#B1C5CA"/>
<path d="M11.3829 9.3114H9.31104V10.7806C9.95497 10.7979 10.5742 10.8839 11.1455 11.033C11.2782 10.5044 11.3615 9.92203 11.3829 9.3114Z" fill="#B1C5CA"/>
</svg>
