<svg width="16" height="17" viewBox="0 0 16 17" fill="none" xmlns="http://www.w3.org/2000/svg">
<path d="M15.5423 9.519C15.8347 9.02594 16 8.5 16 7.86416C16 6.40272 14.7594 5.02264 13.1393 5.02264H11.9233C12.0873 4.5973 12.2183 4.08863 12.2183 3.47736C12.2183 1.06038 10.962 0 9.04267 0C6.9891 0 7.10623 3.15207 6.65067 3.60586C5.89243 4.36113 4.99683 5.81211 4.35867 6.375H1.06667C0.477567 6.375 0 6.8507 0 7.4375V15.4062C0 15.993 0.477567 16.4688 1.06667 16.4688H3.2C3.69643 16.4688 4.1136 16.1309 4.2326 15.6735C5.71623 15.7068 6.7346 16.9997 10.1593 16.9997C10.4 16.9997 10.6667 17 10.9 17C13.4706 17 14.6329 15.691 14.6647 13.8347C15.1086 13.223 15.3413 12.403 15.2427 11.6105C15.5711 10.9978 15.6981 10.271 15.5423 9.519ZM13.484 11.3063C13.9027 12.0079 13.526 12.9469 13.0193 13.2178C13.276 14.8375 12.4324 15.4059 11.2487 15.4059H9.988C7.60003 15.4059 6.0537 14.1502 4.26667 14.1502V7.96875H4.63067C5.576 7.96875 6.89667 5.61498 7.782 4.73277C8.72733 3.79113 8.41233 2.22162 9.04267 1.59375C10.6183 1.59375 10.6183 2.68879 10.6183 3.47736C10.6183 4.77793 9.673 5.36064 9.673 6.61639H13.1393C13.843 6.61639 14.397 7.24426 14.4 7.87213C14.403 8.49967 13.9727 9.12754 13.6577 9.12754C14.1073 9.61081 14.2034 10.6295 13.484 11.3063ZM2.93333 14.3438C2.93333 14.7839 2.57517 15.1406 2.13333 15.1406C1.6915 15.1406 1.33333 14.7839 1.33333 14.3438C1.33333 13.9036 1.6915 13.5469 2.13333 13.5469C2.57517 13.5469 2.93333 13.9036 2.93333 14.3438Z" fill="#2A8BFB"/>
</svg>
