<svg width="15" height="17" viewBox="0 0 15 17" fill="none" xmlns="http://www.w3.org/2000/svg">
<path d="M7.49997 8.27027C9.39958 8.27027 10.9397 6.41892 10.9397 4.13516C10.9397 1.85134 10.434 0 7.49997 0C4.56591 0 4.06018 1.85134 4.06018 4.13516C4.06018 6.41892 5.60026 8.27027 7.49997 8.27027Z" fill="#B1C5CA"/>
<path d="M0.000780036 15.53C0.000104505 15.3683 -0.000571026 15.4844 0.000780036 15.53V15.53Z" fill="#B1C5CA"/>
<path d="M14.9989 15.6566C15.001 15.6122 14.9996 15.3488 14.9989 15.6566V15.6566Z" fill="#B1C5CA"/>
<path d="M14.1419 14.5225C14.0767 10.5693 13.5393 9.44279 9.42729 8.72974C9.42729 8.72974 8.84846 9.43842 7.49932 9.43842C6.15018 9.43842 5.57124 8.72974 5.57124 8.72974C1.50408 9.43501 0.934045 10.5448 0.859093 14.3941C0.852946 14.7084 0.850098 14.7249 0.848999 14.6884C0.849249 14.7568 0.849549 14.8833 0.849549 15.1038C0.849549 15.1038 1.82853 17 7.49932 17C13.17 17 14.1491 15.1038 14.1491 15.1038C14.1491 14.9621 14.1492 14.8636 14.1493 14.7966C14.1482 14.8191 14.146 14.7754 14.1419 14.5225Z" fill="#B1C5CA"/>
</svg>
