<svg width="15" height="15" viewBox="0 0 15 15" fill="none" xmlns="http://www.w3.org/2000/svg">
<path d="M14.9328 11.9588L14.8579 11.731C14.6821 11.2068 14.1027 10.6599 13.5689 10.5134L11.5981 9.97458C11.0643 9.82972 10.3026 10.0251 9.91047 10.4173L9.19761 11.1303C6.60668 10.4287 4.57398 8.39566 3.87414 5.80425L4.587 5.09126C4.97759 4.70059 5.17289 3.9388 5.02806 3.40327L4.49091 1.43203C4.34608 0.898118 3.79597 0.318631 3.27195 0.142831L3.04733 0.0679276C2.52165 -0.107872 1.7714 0.0695426 1.3808 0.461875L0.313181 1.52969C0.12278 1.71852 0.000706637 2.26055 0.000706637 2.26222C-0.0351238 5.65127 1.29295 8.91494 3.68858 11.3126C6.07771 13.7022 9.32942 15.0289 12.7064 14.9995C12.7243 14.9995 13.2825 14.8807 13.4729 14.6902L14.5406 13.6224C14.9312 13.2333 15.1069 12.483 14.9328 11.9588Z" fill="#B1C5CA"/>
</svg>
