<svg width="101" height="16" viewBox="0 0 101 16" fill="none" xmlns="http://www.w3.org/2000/svg">
<path d="M7.14168 0.556577L5.18879 4.69357L0.819452 5.35911C0.035902 5.47784 -0.278116 6.48709 0.290107 7.06515L3.45122 10.2835L2.70356 14.8298C2.56898 15.6516 3.39739 16.2671 4.09122 15.8828L8 13.7362L11.9088 15.8828C12.6026 16.264 13.431 15.6516 13.2964 14.8298L12.5488 10.2835L15.7099 7.06515C16.2781 6.48709 15.9641 5.47784 15.1805 5.35911L10.8112 4.69357L8.85832 0.556577C8.50841 -0.180831 7.49458 -0.190205 7.14168 0.556577Z" fill="#FFD770"/>
<path d="M29.1417 0.556577L27.1888 4.69357L22.8195 5.35911C22.0359 5.47784 21.7219 6.48709 22.2901 7.06515L25.4512 10.2835L24.7036 14.8298C24.569 15.6516 25.3974 16.2671 26.0912 15.8828L30 13.7362L33.9088 15.8828C34.6026 16.264 35.431 15.6516 35.2964 14.8298L34.5488 10.2835L37.7099 7.06515C38.2781 6.48709 37.9641 5.47784 37.1805 5.35911L32.8112 4.69357L30.8583 0.556577C30.5084 -0.180831 29.4946 -0.190205 29.1417 0.556577Z" fill="#FFD770"/>
<path d="M50.1417 0.556577L48.1888 4.69357L43.8195 5.35911C43.0359 5.47784 42.7219 6.48709 43.2901 7.06515L46.4512 10.2835L45.7036 14.8298C45.569 15.6516 46.3974 16.2671 47.0912 15.8828L51 13.7362L54.9088 15.8828C55.6026 16.264 56.431 15.6516 56.2964 14.8298L55.5488 10.2835L58.7099 7.06515C59.2781 6.48709 58.9641 5.47784 58.1805 5.35911L53.8112 4.69357L51.8583 0.556577C51.5084 -0.180831 50.4946 -0.190205 50.1417 0.556577Z" fill="#FFD770"/>
<path d="M71.1417 0.556577L69.1888 4.69357L64.8195 5.35911C64.0359 5.47784 63.7219 6.48709 64.2901 7.06515L67.4512 10.2835L66.7036 14.8298C66.569 15.6516 67.3974 16.2671 68.0912 15.8828L72 13.7362L75.9088 15.8828C76.6026 16.264 77.431 15.6516 77.2964 14.8298L76.5488 10.2835L79.7099 7.06515C80.2781 6.48709 79.9641 5.47784 79.1805 5.35911L74.8112 4.69357L72.8583 0.556577C72.5084 -0.180831 71.4946 -0.190205 71.1417 0.556577Z" fill="#FFD770"/>
<path d="M92.1417 0.556577L90.1888 4.69357L85.8195 5.35911C85.0359 5.47784 84.7219 6.48709 85.2901 7.06515L88.4512 10.2835L87.7036 14.8298C87.569 15.6516 88.3974 16.2671 89.0912 15.8828L93 13.7362L96.9088 15.8828C97.6026 16.264 98.431 15.6516 98.2964 14.8298L97.5488 10.2835L100.71 7.06515C101.278 6.48709 100.964 5.47784 100.181 5.35911L95.8112 4.69357L93.8583 0.556577C93.5084 -0.180831 92.4946 -0.190205 92.1417 0.556577Z" fill="#FFD770"/>
</svg>
