<svg width="16" height="16" viewBox="0 0 16 16" fill="none" xmlns="http://www.w3.org/2000/svg">
<path d="M15.6398 13.8978L12.7488 11.0077C13.5413 9.87196 14.0096 8.494 14.0096 7.00493C14.0096 3.13621 10.8735 0 7.00484 0C3.13618 0 0 3.13621 0 7.00493C0 10.8737 3.13616 14.0099 7.00481 14.0099C8.49386 14.0099 9.87179 13.5415 11.0076 12.749L13.8975 15.639C14.3789 16.1203 15.1584 16.1203 15.6398 15.639C16.1201 15.1587 16.1201 14.3791 15.6398 13.8978ZM7.00481 12.0084C4.24191 12.0084 2.00139 9.76788 2.00139 7.00493C2.00139 4.24198 4.24193 2.00142 7.00481 2.00142C9.76771 2.00142 12.0082 4.24201 12.0082 7.00493C12.0082 9.76788 9.76771 12.0084 7.00481 12.0084Z" fill="#B1C5CA"/>
</svg>
