<svg width="40" height="40" viewBox="0 0 40 40" fill="none" xmlns="http://www.w3.org/2000/svg">
<path d="M20 0C8.97231 0 0 8.97154 0 20C0 31.0285 8.97231 40 20 40C31.0277 40 40 31.0285 40 20C40 8.97154 31.0277 0 20 0ZM21.5385 31.5385C21.5385 32.3877 20.8492 33.0769 20 33.0769C19.1508 33.0769 18.4615 32.3877 18.4615 31.5385V30C18.4615 29.1508 19.1508 28.4615 20 28.4615C20.8492 28.4615 21.5385 29.1508 21.5385 30V31.5385ZM21.5385 25.3846C21.5385 26.2338 20.8492 26.9231 20 26.9231C19.1508 26.9231 18.4615 26.2338 18.4615 25.3846V8.46154C18.4615 7.61231 19.1508 6.92308 20 6.92308C20.8492 6.92308 21.5385 7.61231 21.5385 8.46154V25.3846Z" fill="#2A8BFB"/>
</svg>
