<svg width="43" height="40" viewBox="0 0 43 40" fill="none" xmlns="http://www.w3.org/2000/svg">
<path d="M41.768 19.5006C41.0836 19.5006 40.5361 20.0502 40.5361 20.7371V31.9851C40.5361 35.0444 38.0539 37.5267 35.0151 37.5267H7.98493C4.93697 37.5267 2.46392 35.0353 2.46392 31.9851V20.5539C2.46392 19.867 1.91638 19.3174 1.23196 19.3174C0.547538 19.3174 0 19.867 0 20.5539V31.9851C0 36.4092 3.58637 39.9998 7.98493 39.9998H35.0151C39.4228 39.9998 43 36.4 43 31.9851V20.7371C43 20.0593 42.4525 19.5006 41.768 19.5006Z" fill="#B1C5CA"/>
<path d="M14.537 9.97481L20.2679 4.22258V29.3107C20.2679 29.9977 20.8155 30.5473 21.4999 30.5473C22.1843 30.5473 22.7319 29.9977 22.7319 29.3107V4.22258L28.4628 9.97481C28.7 10.213 29.0194 10.3412 29.3297 10.3412C29.6491 10.3412 29.9594 10.2221 30.1966 9.97481C30.6803 9.48935 30.6803 8.71078 30.1966 8.22533L22.3668 0.366384C22.1387 0.137394 21.8193 0 21.4999 0C21.1714 0 20.8611 0.128234 20.633 0.366384L12.8032 8.22533C12.3195 8.71078 12.3195 9.48935 12.8032 9.97481C13.2777 10.4511 14.0625 10.4511 14.537 9.97481Z" fill="#B1C5CA"/>
</svg>
