<svg width="95" height="48" viewBox="0 0 95 48" fill="none" xmlns="http://www.w3.org/2000/svg">
<path d="M11.712 13.336V13.48C12.992 13.592 13.904 14.008 14.448 14.728C15.008 15.448 15.288 16.496 15.288 17.872C15.288 19.52 14.824 20.656 13.896 21.28C12.984 21.888 11.448 22.192 9.288 22.192C5.784 22.192 3.136 22.128 1.344 22V5.44C2.976 5.312 5.36 5.248 8.496 5.248C10.848 5.248 12.472 5.552 13.368 6.16C14.28 6.752 14.736 7.888 14.736 9.568C14.736 10.768 14.496 11.672 14.016 12.28C13.552 12.888 12.784 13.24 11.712 13.336ZM6.432 11.896H8.28C8.888 11.896 9.288 11.792 9.48 11.584C9.672 11.376 9.768 10.952 9.768 10.312C9.768 9.672 9.664 9.256 9.456 9.064C9.264 8.872 8.856 8.776 8.232 8.776H6.432V11.896ZM6.432 18.664H8.352C9.072 18.664 9.544 18.544 9.768 18.304C9.992 18.064 10.104 17.568 10.104 16.816C10.104 16.048 9.992 15.544 9.768 15.304C9.544 15.064 9.064 14.944 8.328 14.944H6.432V18.664ZM27.7215 18.136L28.1775 21.28C26.8975 21.952 25.1535 22.288 22.9455 22.288C20.5935 22.288 18.9375 21.816 17.9775 20.872C17.0335 19.928 16.5615 18.296 16.5615 15.976C16.5615 13.656 17.0415 12.024 18.0015 11.08C18.9615 10.136 20.6255 9.664 22.9935 9.664C25.1055 9.664 26.7775 9.96 28.0095 10.552L27.5055 13.672H23.8575C23.0735 13.672 22.5375 13.832 22.2495 14.152C21.9775 14.456 21.8415 15.064 21.8415 15.976C21.8415 16.904 21.9775 17.528 22.2495 17.848C22.5375 18.152 23.0735 18.304 23.8575 18.304C25.4255 18.304 26.7135 18.248 27.7215 18.136ZM37.5 17.104H34.5C34.596 17.6 34.788 17.944 35.076 18.136C35.38 18.328 35.852 18.424 36.492 18.424C38.06 18.424 39.684 18.336 41.364 18.16L41.82 21.184C40.364 21.92 38.404 22.288 35.94 22.288C33.492 22.288 31.74 21.784 30.684 20.776C29.628 19.752 29.1 18.192 29.1 16.096C29.1 13.744 29.612 12.088 30.636 11.128C31.66 10.152 33.42 9.664 35.916 9.664C38.124 9.664 39.708 10.016 40.668 10.72C41.644 11.424 42.14 12.496 42.156 13.936C42.172 15.072 41.828 15.888 41.124 16.384C40.436 16.864 39.228 17.104 37.5 17.104ZM34.404 14.728H36.084C36.628 14.728 36.972 14.68 37.116 14.584C37.26 14.472 37.332 14.216 37.332 13.816C37.332 13.448 37.236 13.208 37.044 13.096C36.868 12.968 36.54 12.904 36.06 12.904C35.42 12.888 34.988 12.992 34.764 13.216C34.556 13.44 34.436 13.944 34.404 14.728ZM1.128 33.352L0.744 29.8C2.328 29.432 4.344 29.248 6.792 29.248C9.064 29.248 10.632 29.552 11.496 30.16C12.376 30.752 12.816 31.888 12.816 33.568C12.816 34.784 12.592 35.696 12.144 36.304C11.696 36.896 10.96 37.24 9.936 37.336V37.48C11.152 37.592 12.024 38.008 12.552 38.728C13.08 39.448 13.344 40.496 13.344 41.872C13.344 43.52 12.896 44.656 12 45.28C11.12 45.888 9.64 46.192 7.56 46.192C4.712 46.192 2.352 45.888 0.48 45.28L0.864 41.896C3.168 42.264 5.056 42.448 6.528 42.448C7.12 42.448 7.512 42.344 7.704 42.136C7.912 41.912 8.016 41.472 8.016 40.816C8.016 40.128 7.912 39.68 7.704 39.472C7.512 39.248 7.112 39.128 6.504 39.112L2.856 39.04V35.8L6.456 35.728C6.952 35.712 7.28 35.616 7.44 35.44C7.6 35.248 7.68 34.872 7.68 34.312C7.68 33.784 7.592 33.432 7.416 33.256C7.256 33.08 6.928 32.992 6.432 32.992C4.992 32.992 3.224 33.112 1.128 33.352ZM15.6945 37.456L15.2385 34.264C17.4145 33.864 19.6945 33.664 22.0785 33.664C23.8545 33.664 25.1745 34.032 26.0385 34.768C26.9025 35.504 27.3345 36.768 27.3345 38.56V46H23.3265L22.8705 44.32C21.8145 45.664 20.4305 46.336 18.7185 46.336C17.5345 46.336 16.5505 46.04 15.7665 45.448C14.9825 44.856 14.5905 44.016 14.5905 42.928V41.728C14.5905 40.768 14.9425 40.016 15.6465 39.472C16.3505 38.912 17.3185 38.632 18.5505 38.632H22.2945V38.536C22.2785 38.104 22.1665 37.8 21.9585 37.624C21.7505 37.432 21.3905 37.336 20.8785 37.336C19.1185 37.336 17.3905 37.376 15.6945 37.456ZM19.4865 41.8V42.184C19.4865 42.68 19.8225 42.928 20.4945 42.928C21.0225 42.928 21.6225 42.728 22.2945 42.328V41.056H20.3985C19.7905 41.056 19.4865 41.304 19.4865 41.8ZM37.1445 28.672H40.1925C40.4005 29.744 40.0965 30.704 39.2805 31.552C38.4645 32.4 37.3445 32.824 35.9205 32.824C34.4965 32.824 33.3765 32.4 32.5605 31.552C31.7445 30.704 31.4325 29.744 31.6245 28.672H34.6725C34.5765 29.376 34.6325 29.864 34.8405 30.136C35.0485 30.392 35.4085 30.52 35.9205 30.52C36.4165 30.52 36.7685 30.392 36.9765 30.136C37.1845 29.864 37.2405 29.376 37.1445 28.672ZM42.3765 46L37.8885 46.048V41.344C37.8885 40.736 37.9525 39.984 38.0805 39.088H37.9605C37.7205 39.872 37.3845 40.592 36.9525 41.248L33.8805 46H29.4165V34H33.8805V39.016C33.8805 39.512 33.8165 40.16 33.6885 40.96H33.8085C33.9365 40.512 34.2485 39.888 34.7445 39.088L37.9125 34H42.3765V46ZM56.0766 34H60.3006C61.4046 34 61.9726 34.568 62.0046 35.704L62.2686 46H57.7086L57.4446 37.648H57.1806L56.1966 42.712C56.0366 43.736 55.4126 44.248 54.3246 44.248H52.3326C51.2286 44.248 50.5966 43.736 50.4366 42.712L49.4286 37.648H49.1646L48.9966 46H44.4366L44.6766 35.704C44.7086 34.568 45.2846 34 46.4046 34H50.5326C51.6206 34 52.2366 34.52 52.3806 35.56L53.0766 39.304C53.1086 39.464 53.1646 40.072 53.2446 41.128H53.3886C53.4046 41 53.4206 40.728 53.4366 40.312C53.4686 39.88 53.5086 39.544 53.5566 39.304L54.2046 35.56C54.3486 34.52 54.9726 34 56.0766 34ZM69.1629 37.768H70.0029C72.3869 37.768 74.0189 38.056 74.8989 38.632C75.7789 39.208 76.2189 40.312 76.2189 41.944C76.2189 43.528 75.8029 44.624 74.9709 45.232C74.1549 45.84 72.7949 46.144 70.8909 46.144C68.1229 46.144 65.9789 46.096 64.4589 46H64.3149V34H69.1629V37.768ZM82.3149 34V46H77.2509V34H82.3149ZM69.1629 42.928H70.0029C70.4989 42.928 70.8109 42.856 70.9389 42.712C71.0829 42.568 71.1549 42.248 71.1549 41.752C71.1549 41.24 71.0829 40.912 70.9389 40.768C70.8109 40.624 70.4989 40.552 70.0029 40.552H69.1629V42.928Z" fill="#131755"/>
<rect x="48" y="5" width="47" height="20" rx="10" fill="#2A8BFB"/>
<path d="M57.4 17.348H57.792C57.96 17.348 58.0767 17.3807 58.142 17.446C58.2073 17.5113 58.24 17.628 58.24 17.796V18.552C58.24 18.72 58.2073 18.8367 58.142 18.902C58.0767 18.9673 57.96 19 57.792 19H57.4C57.2413 19 57.1247 18.9673 57.05 18.902C56.9847 18.8367 56.952 18.72 56.952 18.552V17.796C56.952 17.628 56.9847 17.5113 57.05 17.446C57.1247 17.3807 57.2413 17.348 57.4 17.348ZM65.4012 18.02L65.5272 18.818C64.8552 19.0513 64.0759 19.168 63.1892 19.168C62.0132 19.168 61.1779 18.902 60.6832 18.37C60.1979 17.8287 59.9552 16.9 59.9552 15.584C59.9552 14.268 60.1979 13.344 60.6832 12.812C61.1779 12.28 62.0179 12.014 63.2032 12.014C64.0992 12.014 64.8319 12.1213 65.4012 12.336L65.2472 13.106C64.6312 13.05 64.0152 13.022 63.3992 13.022C62.5779 13.022 62.0086 13.204 61.6912 13.568C61.3739 13.932 61.2152 14.604 61.2152 15.584C61.2152 16.5733 61.3739 17.25 61.6912 17.614C62.0086 17.978 62.5779 18.16 63.3992 18.16C64.1459 18.16 64.8132 18.1133 65.4012 18.02ZM69.9155 12.014C71.0915 12.014 71.9175 12.2847 72.3935 12.826C72.8788 13.3673 73.1215 14.2913 73.1215 15.598C73.1215 16.9047 72.8788 17.8287 72.3935 18.37C71.9175 18.9113 71.0915 19.182 69.9155 19.182C68.7488 19.182 67.9228 18.9113 67.4375 18.37C66.9521 17.8287 66.7095 16.9047 66.7095 15.598C66.7095 14.2913 66.9521 13.3673 67.4375 12.826C67.9228 12.2847 68.7488 12.014 69.9155 12.014ZM71.4555 13.568C71.1755 13.204 70.6621 13.022 69.9155 13.022C69.1688 13.022 68.6555 13.204 68.3755 13.568C68.0955 13.932 67.9555 14.6087 67.9555 15.598C67.9555 16.5873 68.0955 17.264 68.3755 17.628C68.6555 17.992 69.1688 18.174 69.9155 18.174C70.6621 18.174 71.1755 17.992 71.4555 17.628C71.7448 17.264 71.8895 16.5873 71.8895 15.598C71.8895 14.6087 71.7448 13.932 71.4555 13.568ZM75.9685 12.182L76.0385 13.26C76.9998 12.4293 77.9285 12.014 78.8245 12.014C79.7765 12.014 80.3505 12.4153 80.5465 13.218C81.4705 12.4153 82.3852 12.014 83.2905 12.014C83.8785 12.014 84.3265 12.1727 84.6345 12.49C84.9518 12.8073 85.1105 13.274 85.1105 13.89V19H83.9345V14.226C83.9252 13.806 83.8365 13.5027 83.6685 13.316C83.5098 13.12 83.2438 13.022 82.8705 13.022C82.5438 13.022 82.2265 13.0967 81.9185 13.246C81.6198 13.3953 81.1905 13.6753 80.6305 14.086V19H79.4825V14.226C79.4825 13.7967 79.3938 13.4887 79.2165 13.302C79.0485 13.1153 78.7825 13.022 78.4185 13.022C78.0918 13.022 77.7745 13.0967 77.4665 13.246C77.1678 13.3953 76.7385 13.6707 76.1785 14.072V19H74.9885V12.182H75.9685Z" fill="white"/>
</svg>
