<svg width="127" height="50" viewBox="0 0 127 50" fill="none" xmlns="http://www.w3.org/2000/svg">
<path d="M0 2C0 0.89543 0.895431 0 2 0H125C126.105 0 127 0.895431 127 2V23C127 24.1046 126.105 25 125 25H0V2Z" fill="#B175FD"/>
<path d="M0 25H89V48C89 49.1046 88.1046 50 87 50H2C0.89543 50 0 49.1046 0 48V25Z" fill="#758BFD"/>
<path d="M21.6874 18H20.4199V9.68H15.7659V18H14.5049V8.6855H21.6874V18ZM27.9954 13.9895C27.9954 13.7208 27.9564 13.476 27.8784 13.255C27.8047 13.0297 27.6942 12.8368 27.5469 12.6765C27.4039 12.5118 27.2284 12.3862 27.0204 12.2995C26.8124 12.2085 26.5762 12.163 26.3119 12.163C25.7572 12.163 25.3174 12.3255 24.9924 12.6505C24.6717 12.9712 24.4724 13.4175 24.3944 13.9895H27.9954ZM28.9314 17.077C28.7884 17.2503 28.6172 17.402 28.4179 17.532C28.2185 17.6577 28.004 17.7617 27.7744 17.844C27.549 17.9263 27.315 17.987 27.0724 18.026C26.8297 18.0693 26.5892 18.091 26.3509 18.091C25.8959 18.091 25.4755 18.0152 25.0899 17.8635C24.7085 17.7075 24.377 17.4822 24.0954 17.1875C23.818 16.8885 23.6014 16.5202 23.4454 16.0825C23.2894 15.6448 23.2114 15.1422 23.2114 14.5745C23.2114 14.1152 23.2807 13.6862 23.4194 13.2875C23.5624 12.8888 23.766 12.5443 24.0304 12.254C24.2947 11.9593 24.6175 11.7297 24.9989 11.565C25.3802 11.396 25.8092 11.3115 26.2859 11.3115C26.6802 11.3115 27.0442 11.3787 27.3779 11.513C27.7159 11.643 28.0062 11.8337 28.2489 12.085C28.4959 12.332 28.6887 12.6397 28.8274 13.008C28.966 13.372 29.0354 13.788 29.0354 14.256C29.0354 14.438 29.0159 14.5593 28.9769 14.62C28.9379 14.6807 28.8642 14.711 28.7559 14.711H24.3554C24.3684 15.127 24.4247 15.4888 24.5244 15.7965C24.6284 16.1042 24.7714 16.362 24.9534 16.57C25.1354 16.7737 25.352 16.9275 25.6034 17.0315C25.8547 17.1312 26.1364 17.181 26.4484 17.181C26.7387 17.181 26.9879 17.1485 27.1959 17.0835C27.4082 17.0142 27.5902 16.9405 27.7419 16.8625C27.8935 16.7845 28.0192 16.713 28.1189 16.648C28.2229 16.5787 28.3117 16.544 28.3854 16.544C28.4807 16.544 28.5544 16.5808 28.6064 16.6545L28.9314 17.077ZM31.62 16.414C31.8324 16.7 32.0642 16.9015 32.3155 17.0185C32.5669 17.1355 32.8485 17.194 33.1605 17.194C33.7759 17.194 34.2482 16.9752 34.5775 16.5375C34.9069 16.0998 35.0715 15.4758 35.0715 14.6655C35.0715 14.2365 35.0325 13.8682 34.9545 13.5605C34.8809 13.2528 34.7725 13.0015 34.6295 12.8065C34.4865 12.6072 34.311 12.462 34.103 12.371C33.895 12.28 33.6589 12.2345 33.3945 12.2345C33.0175 12.2345 32.686 12.3212 32.4 12.4945C32.1184 12.6678 31.8584 12.9127 31.62 13.229V16.414ZM31.5615 12.436C31.8389 12.0937 32.1595 11.8185 32.5235 11.6105C32.8875 11.4025 33.3035 11.2985 33.7715 11.2985C34.1529 11.2985 34.4974 11.3722 34.805 11.5195C35.1127 11.6625 35.3749 11.877 35.5915 12.163C35.8082 12.4447 35.975 12.7957 36.092 13.216C36.209 13.6363 36.2675 14.1195 36.2675 14.6655C36.2675 15.1508 36.2025 15.6037 36.0725 16.024C35.9425 16.44 35.754 16.8018 35.507 17.1095C35.2644 17.4128 34.9654 17.6533 34.61 17.831C34.259 18.0043 33.8625 18.091 33.4205 18.091C33.0175 18.091 32.6709 18.0238 32.3805 17.8895C32.0945 17.7508 31.841 17.5602 31.62 17.3175V20.2295H30.4565V11.4155H31.152C31.3167 11.4155 31.4185 11.4957 31.4575 11.656L31.5615 12.436ZM40.2595 17.1875C40.6928 17.1875 41.0351 17.0878 41.2865 16.8885C41.5378 16.6848 41.6635 16.4075 41.6635 16.0565C41.6635 15.9005 41.6396 15.7597 41.592 15.634C41.5443 15.504 41.4663 15.3913 41.358 15.296C41.2496 15.2007 41.1045 15.127 40.9225 15.075C40.7448 15.023 40.526 14.997 40.266 14.997H38.8425V17.1875H40.2595ZM38.8425 12.1955V14.2625H40.11C40.3006 14.2625 40.4761 14.2365 40.6365 14.1845C40.8011 14.1282 40.942 14.0523 41.059 13.957C41.176 13.8573 41.267 13.7403 41.332 13.606C41.397 13.4673 41.4295 13.3157 41.4295 13.151C41.4295 13.0297 41.4078 12.9127 41.3645 12.8C41.3211 12.683 41.2475 12.5812 41.1435 12.4945C41.0395 12.4035 40.903 12.332 40.734 12.28C40.565 12.2237 40.357 12.1955 40.11 12.1955H38.8425ZM40.1425 11.4155C40.5498 11.4155 40.8986 11.4567 41.189 11.539C41.4793 11.6213 41.7176 11.734 41.904 11.877C42.0903 12.0157 42.2268 12.1803 42.3135 12.371C42.4001 12.5617 42.4435 12.7653 42.4435 12.982C42.4435 13.125 42.424 13.2745 42.385 13.4305C42.346 13.5865 42.2766 13.736 42.177 13.879C42.0816 14.022 41.9495 14.152 41.7805 14.269C41.6158 14.3817 41.4078 14.4705 41.1565 14.5355C41.6591 14.6222 42.047 14.7977 42.32 15.062C42.593 15.322 42.7295 15.6665 42.7295 16.0955C42.7295 16.4162 42.6645 16.6957 42.5345 16.934C42.4088 17.168 42.2333 17.3652 42.008 17.5255C41.787 17.6858 41.527 17.805 41.228 17.883C40.929 17.961 40.6083 18 40.266 18H37.731V11.4155H40.1425ZM46.7087 17.155C46.9427 17.155 47.1442 17.1268 47.3132 17.0705C47.4865 17.0098 47.6295 16.9275 47.7422 16.8235C47.8548 16.7152 47.9393 16.5895 47.9957 16.4465C48.052 16.3035 48.0802 16.1475 48.0802 15.9785C48.0802 15.8225 48.0563 15.6773 48.0087 15.543C47.961 15.4043 47.8808 15.283 47.7682 15.179C47.6598 15.075 47.5168 14.9927 47.3392 14.932C47.1615 14.8713 46.9448 14.841 46.6892 14.841H45.2852V17.155H46.7087ZM46.6892 13.996C47.1442 13.996 47.5255 14.0502 47.8332 14.1585C48.1452 14.2668 48.3943 14.412 48.5807 14.594C48.7713 14.776 48.9078 14.9862 48.9902 15.2245C49.0725 15.4628 49.1137 15.7098 49.1137 15.9655C49.1137 16.2602 49.0617 16.5332 48.9577 16.7845C48.8537 17.0315 48.6998 17.246 48.4962 17.428C48.2925 17.6057 48.0412 17.7465 47.7422 17.8505C47.4432 17.9502 47.0987 18 46.7087 18H44.1802V11.4155H45.2852V13.996H46.6892ZM51.7202 11.4155V18H50.5632V11.4155H51.7202ZM59.2105 11.4155V18H58.0535V13.528C58.0535 13.4413 58.0578 13.3482 58.0665 13.2485C58.0752 13.1488 58.086 13.0492 58.099 12.9495C58.06 13.0362 58.021 13.1163 57.982 13.19C57.943 13.2637 57.9018 13.3308 57.8585 13.3915L54.68 17.714C54.6323 17.7833 54.5717 17.8505 54.498 17.9155C54.4287 17.9762 54.3507 18.0065 54.264 18.0065H53.562V11.422H54.7255V15.894C54.7255 15.9763 54.7212 16.0673 54.7125 16.167C54.7038 16.2623 54.693 16.3598 54.68 16.4595C54.719 16.3772 54.758 16.3013 54.797 16.232C54.836 16.1583 54.875 16.0912 54.914 16.0305L58.0925 11.708C58.1402 11.6387 58.2008 11.5737 58.2745 11.513C58.3482 11.448 58.4283 11.4155 58.515 11.4155H59.2105ZM56.461 9.823C56.6387 9.823 56.7882 9.8035 56.9095 9.7645C57.0308 9.72117 57.1283 9.654 57.202 9.563C57.28 9.472 57.3363 9.355 57.371 9.212C57.4057 9.069 57.423 8.8935 57.423 8.6855H58.099C58.1813 8.6855 58.2442 8.72233 58.2875 8.796C58.3308 8.86967 58.3525 8.94983 58.3525 9.0365C58.3525 9.25317 58.3092 9.44817 58.2225 9.6215C58.1358 9.79483 58.0102 9.94433 57.8455 10.07C57.6852 10.1913 57.488 10.2845 57.254 10.3495C57.02 10.4145 56.7557 10.447 56.461 10.447C56.1663 10.447 55.902 10.4145 55.668 10.3495C55.434 10.2845 55.2347 10.1913 55.07 10.07C54.9097 9.94433 54.7862 9.79483 54.6995 9.6215C54.6128 9.44817 54.5695 9.25317 54.5695 9.0365C54.5695 8.94983 54.5912 8.86967 54.6345 8.796C54.6778 8.72233 54.7407 8.6855 54.823 8.6855H55.499C55.499 8.8935 55.5163 9.069 55.551 9.212C55.5857 9.355 55.6398 9.472 55.7135 9.563C55.7915 9.654 55.8912 9.72117 56.0125 9.7645C56.1338 9.8035 56.2833 9.823 56.461 9.823ZM63.9497 12.0915C64.1967 11.8575 64.4957 11.669 64.8467 11.526C65.2021 11.383 65.6289 11.3115 66.1272 11.3115C66.5259 11.3115 66.8769 11.3613 67.1802 11.461C67.4836 11.5563 67.7371 11.6842 67.9407 11.8445C68.1487 12.0048 68.3047 12.189 68.4087 12.397C68.5171 12.6007 68.5712 12.813 68.5712 13.034C68.5712 13.164 68.5496 13.3005 68.5062 13.4435C68.4672 13.5865 68.4001 13.723 68.3047 13.853C68.2094 13.983 68.0859 14.1043 67.9342 14.217C67.7826 14.3297 67.5941 14.4207 67.3687 14.49C67.7891 14.6157 68.1184 14.8172 68.3567 15.0945C68.5994 15.3718 68.7207 15.712 68.7207 16.115C68.7207 16.4183 68.6514 16.6935 68.5127 16.9405C68.3741 17.1832 68.1877 17.3912 67.9537 17.5645C67.7197 17.7335 67.4467 17.8635 67.1347 17.9545C66.8271 18.0455 66.5042 18.091 66.1662 18.091C65.9539 18.091 65.7372 18.0715 65.5162 18.0325C65.2996 17.9935 65.0872 17.9328 64.8792 17.8505C64.6712 17.7638 64.4741 17.6577 64.2877 17.532C64.1057 17.4063 63.9432 17.2547 63.8002 17.077L64.1252 16.6545C64.1772 16.5808 64.2509 16.544 64.3462 16.544C64.4242 16.544 64.5066 16.5787 64.5932 16.648C64.6842 16.713 64.7947 16.7867 64.9247 16.869C65.0547 16.9513 65.2129 17.0272 65.3992 17.0965C65.5899 17.1615 65.8217 17.194 66.0947 17.194C66.3331 17.194 66.5454 17.1658 66.7317 17.1095C66.9224 17.0488 67.0827 16.9665 67.2127 16.8625C67.3427 16.7585 67.4424 16.635 67.5117 16.492C67.5811 16.349 67.6157 16.193 67.6157 16.024C67.6157 15.699 67.4792 15.4368 67.2062 15.2375C66.9376 15.0382 66.5281 14.9385 65.9777 14.9385H65.2302V14.1715H65.9777C66.2161 14.1715 66.4306 14.1477 66.6212 14.1C66.8119 14.048 66.9744 13.9787 67.1087 13.892C67.2431 13.8053 67.3449 13.7013 67.4142 13.58C67.4836 13.4543 67.5182 13.32 67.5182 13.177C67.5182 13.047 67.4879 12.9235 67.4272 12.8065C67.3709 12.6895 67.2821 12.5877 67.1607 12.501C67.0437 12.4143 66.8964 12.345 66.7187 12.293C66.5411 12.241 66.3331 12.215 66.0947 12.215C65.8347 12.215 65.6137 12.241 65.4317 12.293C65.2541 12.345 65.1024 12.4013 64.9767 12.462C64.8554 12.5227 64.7557 12.579 64.6777 12.631C64.5997 12.683 64.5326 12.709 64.4762 12.709C64.4199 12.709 64.3722 12.6982 64.3332 12.6765C64.2986 12.6548 64.2596 12.6093 64.2162 12.54L63.9497 12.0915ZM73.7741 15.036C73.2411 15.0533 72.7861 15.0967 72.4091 15.166C72.0364 15.231 71.7309 15.3177 71.4926 15.426C71.2586 15.5343 71.0874 15.6622 70.9791 15.8095C70.8751 15.9568 70.8231 16.1215 70.8231 16.3035C70.8231 16.4768 70.8512 16.6263 70.9076 16.752C70.9639 16.8777 71.0397 16.9817 71.1351 17.064C71.2347 17.142 71.3496 17.2005 71.4796 17.2395C71.6139 17.2742 71.7569 17.2915 71.9086 17.2915C72.1122 17.2915 72.2986 17.272 72.4676 17.233C72.6366 17.1897 72.7947 17.129 72.9421 17.051C73.0937 16.973 73.2367 16.8798 73.3711 16.7715C73.5097 16.6632 73.6441 16.5397 73.7741 16.401V15.036ZM70.0366 12.345C70.4006 11.994 70.7927 11.7318 71.2131 11.5585C71.6334 11.3852 72.0992 11.2985 72.6106 11.2985C72.9789 11.2985 73.3061 11.3592 73.5921 11.4805C73.8781 11.6018 74.1186 11.7708 74.3136 11.9875C74.5086 12.2042 74.6559 12.4663 74.7556 12.774C74.8552 13.0817 74.9051 13.4197 74.9051 13.788V18H74.3916C74.2789 18 74.1922 17.9827 74.1316 17.948C74.0709 17.909 74.0232 17.8353 73.9886 17.727L73.8586 17.103C73.6852 17.2633 73.5162 17.4063 73.3516 17.532C73.1869 17.6533 73.0136 17.7573 72.8316 17.844C72.6496 17.9263 72.4546 17.9892 72.2466 18.0325C72.0429 18.0802 71.8154 18.104 71.5641 18.104C71.3084 18.104 71.0679 18.0693 70.8426 18C70.6172 17.9263 70.4201 17.818 70.2511 17.675C70.0864 17.532 69.9542 17.3522 69.8546 17.1355C69.7592 16.9145 69.7116 16.6545 69.7116 16.3555C69.7116 16.0955 69.7831 15.8463 69.9261 15.608C70.0691 15.3653 70.3009 15.1508 70.6216 14.9645C70.9422 14.7782 71.3604 14.6265 71.8761 14.5095C72.3917 14.3882 73.0244 14.3188 73.7741 14.3015V13.788C73.7741 13.2767 73.6636 12.891 73.4426 12.631C73.2216 12.3667 72.8987 12.2345 72.4741 12.2345C72.1881 12.2345 71.9476 12.2713 71.7526 12.345C71.5619 12.4143 71.3951 12.4945 71.2521 12.5855C71.1134 12.6722 70.9921 12.7523 70.8881 12.826C70.7884 12.8953 70.6887 12.93 70.5891 12.93C70.5111 12.93 70.4439 12.9105 70.3876 12.8715C70.3312 12.8282 70.2836 12.7762 70.2446 12.7155L70.0366 12.345ZM82.316 11.4155V18H81.159V13.528C81.159 13.4413 81.1633 13.3482 81.172 13.2485C81.1806 13.1488 81.1915 13.0492 81.2045 12.9495C81.1655 13.0362 81.1265 13.1163 81.0875 13.19C81.0485 13.2637 81.0073 13.3308 80.964 13.3915L77.7855 17.714C77.7378 17.7833 77.6771 17.8505 77.6035 17.9155C77.5341 17.9762 77.4561 18.0065 77.3695 18.0065H76.6675V11.422H77.831V15.894C77.831 15.9763 77.8266 16.0673 77.818 16.167C77.8093 16.2623 77.7985 16.3598 77.7855 16.4595C77.8245 16.3772 77.8635 16.3013 77.9025 16.232C77.9415 16.1583 77.9805 16.0912 78.0195 16.0305L81.198 11.708C81.2456 11.6387 81.3063 11.5737 81.38 11.513C81.4536 11.448 81.5338 11.4155 81.6205 11.4155H82.316ZM79.5665 9.823C79.7441 9.823 79.8936 9.8035 80.015 9.7645C80.1363 9.72117 80.2338 9.654 80.3075 9.563C80.3855 9.472 80.4418 9.355 80.4765 9.212C80.5111 9.069 80.5285 8.8935 80.5285 8.6855H81.2045C81.2868 8.6855 81.3496 8.72233 81.393 8.796C81.4363 8.86967 81.458 8.94983 81.458 9.0365C81.458 9.25317 81.4146 9.44817 81.328 9.6215C81.2413 9.79483 81.1156 9.94433 80.951 10.07C80.7906 10.1913 80.5935 10.2845 80.3595 10.3495C80.1255 10.4145 79.8611 10.447 79.5665 10.447C79.2718 10.447 79.0075 10.4145 78.7735 10.3495C78.5395 10.2845 78.3401 10.1913 78.1755 10.07C78.0151 9.94433 77.8916 9.79483 77.805 9.6215C77.7183 9.44817 77.675 9.25317 77.675 9.0365C77.675 8.94983 77.6966 8.86967 77.74 8.796C77.7833 8.72233 77.8461 8.6855 77.9285 8.6855H78.6045C78.6045 8.8935 78.6218 9.069 78.6565 9.212C78.6911 9.355 78.7453 9.472 78.819 9.563C78.897 9.654 78.9966 9.72117 79.118 9.7645C79.2393 9.8035 79.3888 9.823 79.5665 9.823ZM91.4835 11.396V18H90.437V13.6255C90.437 13.5042 90.4435 13.3698 90.4565 13.2225C90.4738 13.0708 90.4955 12.93 90.5215 12.8L88.2335 16.8105C88.1988 16.8755 88.1533 16.9275 88.097 16.9665C88.0407 17.0055 87.9757 17.025 87.902 17.025H87.772C87.6983 17.025 87.6312 17.0055 87.5705 16.9665C87.5142 16.9275 87.4687 16.8755 87.434 16.8105L85.107 12.787C85.1287 12.917 85.1482 13.06 85.1655 13.216C85.1828 13.3677 85.1915 13.5042 85.1915 13.6255V18H84.145V11.396H85.0745C85.1568 11.396 85.237 11.4155 85.315 11.4545C85.393 11.4892 85.4602 11.5563 85.5165 11.656L87.5705 15.088C87.6702 15.2873 87.759 15.4975 87.837 15.7185C87.9107 15.4888 87.9973 15.2787 88.097 15.088L90.112 11.656C90.1683 11.552 90.2355 11.4827 90.3135 11.448C90.3915 11.4133 90.4717 11.396 90.554 11.396H91.4835ZM102.871 13.346C102.871 14.1607 102.782 14.867 102.604 15.465C102.431 16.0587 102.193 16.5505 101.889 16.9405C101.586 17.3305 101.226 17.6208 100.81 17.8115C100.399 18.0022 99.9565 18.0975 99.4842 18.0975C99.0075 18.0975 98.5634 18.0022 98.1517 17.8115C97.7444 17.6208 97.389 17.3305 97.0857 16.9405C96.7824 16.5505 96.544 16.0587 96.3707 15.465C96.1974 14.867 96.1107 14.1607 96.1107 13.346C96.1107 12.5313 96.1974 11.825 96.3707 11.227C96.544 10.629 96.7824 10.135 97.0857 9.745C97.389 9.35067 97.7444 9.05817 98.1517 8.8675C98.5634 8.67683 99.0075 8.5815 99.4842 8.5815C99.9565 8.5815 100.399 8.67683 100.81 8.8675C101.226 9.05817 101.586 9.35067 101.889 9.745C102.193 10.135 102.431 10.629 102.604 11.227C102.782 11.825 102.871 12.5313 102.871 13.346ZM101.668 13.346C101.668 12.6353 101.608 12.0395 101.486 11.5585C101.369 11.0732 101.209 10.6832 101.005 10.3885C100.806 10.0938 100.574 9.88367 100.31 9.758C100.045 9.628 99.7702 9.563 99.4842 9.563C99.1982 9.563 98.923 9.628 98.6587 9.758C98.3944 9.88367 98.1625 10.0938 97.9632 10.3885C97.7639 10.6832 97.6035 11.0732 97.4822 11.5585C97.3652 12.0395 97.3067 12.6353 97.3067 13.346C97.3067 14.0567 97.3652 14.6525 97.4822 15.1335C97.6035 15.6145 97.7639 16.0023 97.9632 16.297C98.1625 16.5917 98.3944 16.804 98.6587 16.934C98.923 17.0597 99.1982 17.1225 99.4842 17.1225C99.7702 17.1225 100.045 17.0597 100.31 16.934C100.574 16.804 100.806 16.5917 101.005 16.297C101.209 16.0023 101.369 15.6145 101.486 15.1335C101.608 14.6525 101.668 14.0567 101.668 13.346ZM107.955 10.9345C107.955 11.2985 107.898 11.6257 107.786 11.916C107.673 12.202 107.521 12.4447 107.331 12.644C107.144 12.839 106.926 12.9885 106.674 13.0925C106.427 13.1965 106.165 13.2485 105.888 13.2485C105.597 13.2485 105.327 13.1965 105.075 13.0925C104.824 12.9885 104.605 12.839 104.419 12.644C104.237 12.4447 104.094 12.202 103.99 11.916C103.886 11.6257 103.834 11.2985 103.834 10.9345C103.834 10.5618 103.886 10.2303 103.99 9.94C104.094 9.64967 104.237 9.40483 104.419 9.2055C104.605 9.00617 104.824 8.8545 105.075 8.7505C105.327 8.6465 105.597 8.5945 105.888 8.5945C106.182 8.5945 106.455 8.6465 106.707 8.7505C106.958 8.8545 107.177 9.00617 107.363 9.2055C107.55 9.40483 107.695 9.64967 107.799 9.94C107.903 10.2303 107.955 10.5618 107.955 10.9345ZM107.058 10.9345C107.058 10.6485 107.027 10.4058 106.967 10.2065C106.906 10.0072 106.822 9.84467 106.713 9.719C106.609 9.589 106.486 9.49583 106.343 9.4395C106.2 9.38317 106.048 9.355 105.888 9.355C105.727 9.355 105.578 9.38317 105.439 9.4395C105.301 9.49583 105.179 9.589 105.075 9.719C104.971 9.84467 104.889 10.0072 104.828 10.2065C104.768 10.4058 104.737 10.6485 104.737 10.9345C104.737 11.2162 104.768 11.4567 104.828 11.656C104.889 11.851 104.971 12.0113 105.075 12.137C105.179 12.2583 105.301 12.3472 105.439 12.4035C105.578 12.4555 105.727 12.4815 105.888 12.4815C106.048 12.4815 106.2 12.4555 106.343 12.4035C106.486 12.3472 106.609 12.2583 106.713 12.137C106.822 12.0113 106.906 11.851 106.967 11.656C107.027 11.4567 107.058 11.2162 107.058 10.9345ZM111.25 8.8805C111.294 8.8285 111.343 8.783 111.4 8.744C111.46 8.705 111.541 8.6855 111.64 8.6855H112.479L105.667 17.8115C105.628 17.8678 105.578 17.9133 105.517 17.948C105.457 17.9827 105.383 18 105.296 18H104.445L111.25 8.8805ZM113.109 15.803C113.109 16.167 113.053 16.492 112.94 16.778C112.828 17.064 112.676 17.3067 112.485 17.506C112.299 17.701 112.08 17.8505 111.829 17.9545C111.582 18.0585 111.32 18.1105 111.042 18.1105C110.748 18.1105 110.475 18.0585 110.223 17.9545C109.976 17.8505 109.76 17.701 109.573 17.506C109.391 17.3067 109.248 17.064 109.144 16.778C109.04 16.492 108.988 16.167 108.988 15.803C108.988 15.4303 109.04 15.0988 109.144 14.8085C109.248 14.5138 109.391 14.2668 109.573 14.0675C109.76 13.8682 109.976 13.7165 110.223 13.6125C110.475 13.5085 110.748 13.4565 111.042 13.4565C111.333 13.4565 111.603 13.5085 111.855 13.6125C112.11 13.7165 112.329 13.8682 112.511 14.0675C112.698 14.2668 112.843 14.5138 112.947 14.8085C113.055 15.0988 113.109 15.4303 113.109 15.803ZM112.212 15.803C112.212 15.517 112.182 15.2743 112.121 15.075C112.061 14.8713 111.976 14.7067 111.868 14.581C111.764 14.4553 111.64 14.3643 111.497 14.308C111.354 14.2517 111.203 14.2235 111.042 14.2235C110.882 14.2235 110.73 14.2517 110.587 14.308C110.449 14.3643 110.327 14.4553 110.223 14.581C110.119 14.7067 110.037 14.8713 109.976 15.075C109.92 15.2743 109.892 15.517 109.892 15.803C109.892 16.0847 109.92 16.323 109.976 16.518C110.037 16.713 110.119 16.8733 110.223 16.999C110.327 17.1203 110.449 17.2092 110.587 17.2655C110.73 17.3175 110.882 17.3435 111.042 17.3435C111.203 17.3435 111.354 17.3175 111.497 17.2655C111.64 17.2092 111.764 17.1203 111.868 16.999C111.976 16.8733 112.061 16.713 112.121 16.518C112.182 16.323 112.212 16.0847 112.212 15.803Z" fill="white"/>
<path d="M20.8781 34.745H17.8621V43H16.6076V34.745H13.5851V33.6855H20.8781V34.745ZM30.4474 38.346C30.4474 39.0437 30.3369 39.685 30.1159 40.27C29.8949 40.8507 29.5829 41.3512 29.1799 41.7715C28.7769 42.1918 28.2915 42.519 27.7239 42.753C27.1605 42.9827 26.5365 43.0975 25.8519 43.0975C25.1672 43.0975 24.5432 42.9827 23.9799 42.753C23.4165 42.519 22.9334 42.1918 22.5304 41.7715C22.1274 41.3512 21.8154 40.8507 21.5944 40.27C21.3734 39.685 21.2629 39.0437 21.2629 38.346C21.2629 37.6483 21.3734 37.0092 21.5944 36.4285C21.8154 35.8435 22.1274 35.3408 22.5304 34.9205C22.9334 34.4958 23.4165 34.1665 23.9799 33.9325C24.5432 33.6985 25.1672 33.5815 25.8519 33.5815C26.5365 33.5815 27.1605 33.6985 27.7239 33.9325C28.2915 34.1665 28.7769 34.4958 29.1799 34.9205C29.5829 35.3408 29.8949 35.8435 30.1159 36.4285C30.3369 37.0092 30.4474 37.6483 30.4474 38.346ZM29.1539 38.346C29.1539 37.774 29.0759 37.2605 28.9199 36.8055C28.7639 36.3505 28.5429 35.967 28.2569 35.655C27.9709 35.3387 27.6242 35.096 27.2169 34.927C26.8095 34.758 26.3545 34.6735 25.8519 34.6735C25.3535 34.6735 24.9007 34.758 24.4934 34.927C24.086 35.096 23.7372 35.3387 23.4469 35.655C23.1609 35.967 22.9399 36.3505 22.7839 36.8055C22.6279 37.2605 22.5499 37.774 22.5499 38.346C22.5499 38.918 22.6279 39.4315 22.7839 39.8865C22.9399 40.3372 23.1609 40.7207 23.4469 41.037C23.7372 41.349 24.086 41.5895 24.4934 41.7585C24.9007 41.9232 25.3535 42.0055 25.8519 42.0055C26.3545 42.0055 26.8095 41.9232 27.2169 41.7585C27.6242 41.5895 27.9709 41.349 28.2569 41.037C28.5429 40.7207 28.7639 40.3372 28.9199 39.8865C29.0759 39.4315 29.1539 38.918 29.1539 38.346ZM39.434 43H38.1665V34.68H33.5125V43H32.2515V33.6855H39.434V43ZM41.4341 38.6125H44.6451V39.594H41.4341V38.6125ZM51.8613 41.9015C51.987 41.9015 52.0866 41.9383 52.1603 42.012C52.234 42.0857 52.2708 42.181 52.2708 42.298V43H46.0568V42.6035C46.0568 42.5212 46.0741 42.4367 46.1088 42.35C46.1435 42.2633 46.1976 42.1832 46.2713 42.1095L49.2548 39.113C49.5018 38.8617 49.7271 38.6212 49.9308 38.3915C50.1345 38.1575 50.3078 37.9235 50.4508 37.6895C50.5938 37.4555 50.7043 37.2193 50.7823 36.981C50.8603 36.7383 50.8993 36.4805 50.8993 36.2075C50.8993 35.9345 50.856 35.6962 50.7693 35.4925C50.6826 35.2845 50.5635 35.1133 50.4118 34.979C50.2645 34.8447 50.089 34.745 49.8853 34.68C49.6816 34.6107 49.4628 34.576 49.2288 34.576C48.9905 34.576 48.7716 34.6107 48.5723 34.68C48.373 34.7493 48.1953 34.8468 48.0393 34.9725C47.8876 35.0938 47.7598 35.239 47.6558 35.408C47.5518 35.577 47.4781 35.7633 47.4348 35.967C47.3828 36.1187 47.3113 36.2205 47.2203 36.2725C47.1336 36.3202 47.0101 36.3332 46.8498 36.3115L46.2453 36.2075C46.306 35.7828 46.423 35.408 46.5963 35.083C46.774 34.7537 46.995 34.4785 47.2593 34.2575C47.528 34.0365 47.8335 33.8697 48.1758 33.757C48.5181 33.64 48.8886 33.5815 49.2873 33.5815C49.6816 33.5815 50.05 33.64 50.3923 33.757C50.7346 33.874 51.0315 34.0452 51.2828 34.2705C51.5341 34.4915 51.7313 34.7623 51.8743 35.083C52.0173 35.4037 52.0888 35.7677 52.0888 36.175C52.0888 36.5217 52.0368 36.8445 51.9328 37.1435C51.8288 37.4382 51.688 37.7198 51.5103 37.9885C51.3326 38.2572 51.1268 38.5193 50.8928 38.775C50.6631 39.0307 50.4183 39.2885 50.1583 39.5485L47.7013 42.0575C47.8746 42.0098 48.0501 41.973 48.2278 41.947C48.4055 41.9167 48.5766 41.9015 48.7413 41.9015H51.8613ZM60.1368 38.346C60.1368 39.1607 60.048 39.867 59.8703 40.465C59.697 41.0587 59.4587 41.5505 59.1553 41.9405C58.852 42.3305 58.4923 42.6208 58.0763 42.8115C57.6646 43.0022 57.2226 43.0975 56.7503 43.0975C56.2736 43.0975 55.8295 43.0022 55.4178 42.8115C55.0105 42.6208 54.6551 42.3305 54.3518 41.9405C54.0485 41.5505 53.8101 41.0587 53.6368 40.465C53.4635 39.867 53.3768 39.1607 53.3768 38.346C53.3768 37.5313 53.4635 36.825 53.6368 36.227C53.8101 35.629 54.0485 35.135 54.3518 34.745C54.6551 34.3507 55.0105 34.0582 55.4178 33.8675C55.8295 33.6768 56.2736 33.5815 56.7503 33.5815C57.2226 33.5815 57.6646 33.6768 58.0763 33.8675C58.4923 34.0582 58.852 34.3507 59.1553 34.745C59.4587 35.135 59.697 35.629 59.8703 36.227C60.048 36.825 60.1368 37.5313 60.1368 38.346ZM58.9343 38.346C58.9343 37.6353 58.8736 37.0395 58.7523 36.5585C58.6353 36.0732 58.475 35.6832 58.2713 35.3885C58.072 35.0938 57.8401 34.8837 57.5758 34.758C57.3115 34.628 57.0363 34.563 56.7503 34.563C56.4643 34.563 56.1891 34.628 55.9248 34.758C55.6605 34.8837 55.4286 35.0938 55.2293 35.3885C55.03 35.6832 54.8696 36.0732 54.7483 36.5585C54.6313 37.0395 54.5728 37.6353 54.5728 38.346C54.5728 39.0567 54.6313 39.6525 54.7483 40.1335C54.8696 40.6145 55.03 41.0023 55.2293 41.297C55.4286 41.5917 55.6605 41.804 55.9248 41.934C56.1891 42.0597 56.4643 42.1225 56.7503 42.1225C57.0363 42.1225 57.3115 42.0597 57.5758 41.934C57.8401 41.804 58.072 41.5917 58.2713 41.297C58.475 41.0023 58.6353 40.6145 58.7523 40.1335C58.8736 39.6525 58.9343 39.0567 58.9343 38.346ZM67.1448 42.116V43H62.1528V42.116H64.1483V35.7655C64.1483 35.5748 64.1548 35.382 64.1678 35.187L62.5103 36.6105C62.454 36.6582 62.3977 36.6885 62.3413 36.7015C62.285 36.7102 62.233 36.7102 62.1853 36.7015C62.1377 36.6928 62.0922 36.6755 62.0488 36.6495C62.0098 36.6235 61.9795 36.5953 61.9578 36.565L61.5938 36.0645L64.3693 33.666H65.3118V42.116H67.1448ZM69.9083 36.422C69.9083 36.7167 69.9495 36.981 70.0318 37.215C70.1185 37.4447 70.2398 37.6397 70.3958 37.8C70.5562 37.9603 70.749 38.0817 70.9743 38.164C71.204 38.2463 71.4597 38.2875 71.7413 38.2875C72.0533 38.2875 72.3285 38.2377 72.5668 38.138C72.8095 38.034 73.0132 37.8975 73.1778 37.7285C73.3425 37.5595 73.4682 37.3645 73.5548 37.1435C73.6415 36.9225 73.6848 36.6928 73.6848 36.4545C73.6848 36.1642 73.6372 35.902 73.5418 35.668C73.4508 35.4297 73.323 35.2282 73.1583 35.0635C72.9937 34.8988 72.7965 34.7732 72.5668 34.6865C72.3415 34.5955 72.0923 34.55 71.8193 34.55C71.5333 34.55 71.2733 34.5977 71.0393 34.693C70.8053 34.784 70.6038 34.9118 70.4348 35.0765C70.2658 35.2412 70.1358 35.4383 70.0448 35.668C69.9538 35.8977 69.9083 36.149 69.9083 36.422ZM72.6123 39.2885C72.7077 39.1628 72.7965 39.0437 72.8788 38.931C72.9612 38.8183 73.0392 38.7057 73.1128 38.593C72.8745 38.7837 72.6058 38.9288 72.3068 39.0285C72.0078 39.1282 71.6915 39.178 71.3578 39.178C71.0068 39.178 70.6732 39.1195 70.3568 39.0025C70.0448 38.8855 69.7697 38.7143 69.5313 38.489C69.293 38.2593 69.1023 37.9798 68.9593 37.6505C68.8207 37.3168 68.7513 36.9355 68.7513 36.5065C68.7513 36.0992 68.8272 35.7178 68.9788 35.3625C69.1305 35.0072 69.3428 34.6973 69.6158 34.433C69.8888 34.1687 70.2138 33.9607 70.5908 33.809C70.9678 33.6573 71.3817 33.5815 71.8323 33.5815C72.2787 33.5815 72.6838 33.6552 73.0478 33.8025C73.4118 33.9498 73.7238 34.1557 73.9838 34.42C74.2438 34.6843 74.4432 35.0007 74.5818 35.369C74.7248 35.7373 74.7963 36.1447 74.7963 36.591C74.7963 36.8597 74.7703 37.1153 74.7183 37.358C74.6707 37.5963 74.5992 37.8325 74.5038 38.0665C74.4128 38.2962 74.3002 38.5258 74.1658 38.7555C74.0315 38.9808 73.8798 39.2127 73.7108 39.451L71.4423 42.727C71.386 42.8093 71.3058 42.8765 71.2018 42.9285C71.0978 42.9762 70.9787 43 70.8443 43H69.7783L72.6123 39.2885Z" fill="white"/>
</svg>
